<?xml version="1.0" encoding="utf-8"?>
<!-- Generator: Adobe Illustrator 16.0.0, SVG Export Plug-In . SVG Version: 6.00 Build 0)  -->
<!DOCTYPE svg PUBLIC "-//W3C//DTD SVG 1.1//EN" "http://www.w3.org/Graphics/SVG/1.1/DTD/svg11.dtd">
<svg version="1.1" id="Layer_1" xmlns="http://www.w3.org/2000/svg" xmlns:xlink="http://www.w3.org/1999/xlink" x="0px" y="0px"
	 width="80px" height="100px" viewBox="0 0 80 100" style="enable-background:new 0 0 80 100;" xml:space="preserve">
<path style="fill:#FAEC0F;" d="M39.8,2.1C19.9,2.1,3.9,18.2,3.9,38c0,8,2.8,15.5,7.3,21.6L40,97.9l28.8-38.4
	c4.5-6,7.3-13.5,7.3-21.6C75.6,18.2,59.6,2.1,39.8,2.1z M39.8,61.8C26.5,61.8,15.9,51,15.9,38c0-13.3,10.8-23.8,23.8-23.8
	C53,14.1,63.6,24.9,63.6,38C63.8,51.3,53,61.8,39.8,61.8z"/>
<path style="fill:#FAEC0F;" d="M65.7,37.3C65.7,51.5,54.2,63,40,63S14.3,51.5,14.3,37.3c0-14.2,11.5-25.7,25.7-25.7
	S65.7,23.1,65.7,37.3z"/>
<g>
	<path style="fill:#020202;" d="M38.5,22.3c-0.7,0.7-5,6.3-5,6.3c0.3,0,1,0,1.3,0c0.3,0,1,0.3,1,0.3c0.3-1,1-2,1.7-3.3
		C38.2,24.3,38.2,23.7,38.5,22.3z"/>
	<path style="fill:#020202;" d="M61.1,29.3l-1.7,2.3c0,1,1.3,1.3,1.7,1.3c0.3,0,1-0.3,1-1.7C62.1,30,61.1,29.3,61.1,29.3z"/>
	<path style="fill:#020202;" d="M67.4,40.3V39h-0.7l0,0c0-1.3-1.3-1.3-1.3-1.3c0-0.3,0-1,0-1.3c0-1.3-0.3-3.3-0.7-4
		c0-0.3-0.3-0.7-0.3-1.3h0.3c1,0,1.7-0.7,1.7-1.7c0-1.7-2-3.3-3.7-3.3c-1,0-1.7,0-2.3,0.3c0-0.7-0.3-1.3-0.7-2c-0.3-0.7-1.7-1-2.3-1
		c-0.6,0-1.7,0-2.3,0.3V23c0-0.7-0.3-1.3-0.7-1.3c-0.3-0.3-1.3-0.7-2.3-0.7c-2.3,0-5,1.3-5,1.7c0,0-0.3,0-0.3-1.7s-2-2-2.7-2h-1.3
		c-2,0-3.7,0-5.3-0.3c-1.3,0-2.7-0.3-4-0.3c-3.7,0-7,2-8.3,3.3c-2.3,2-3.7,4-3.7,6c0,1,0.3,2.3,1,3c-0.3,0-0.3,0-0.3,0
		c-2.7,0-5.3,1.7-7.7,4.7c-2,2.7-3.3,6-3.3,9c0,2.7,2,4,3.3,4s3.3-1,5.3-2.3c0.3,1,0.7,2,1.3,2.7v1.3h46.2v-1.3c1-1,1.3-3,1.3-4
		C68.8,43.3,68.4,41.3,67.4,40.3z M56.8,25c1,0,1.3,0.7,1.3,1.7s-1,2.3-2.7,2.3c0,0,0.7-0.7,1-1.3c-0.3,0-1-0.7-1-1.3
		C55.5,25.7,55.8,25,56.8,25z M35.5,38.3c-2,0-2.3-2-2.3-2.3c0-1.3,0.7-3,1.7-5c0,0-0.7,0-1,0c-2.3,0-4.3,2.7-7,6
		c-2.7,3.7-8.6,9.3-11.6,9.3c-2,0-2-2-2-2.3c0-5,4.7-12.3,9.6-12.3c0,0-1,1-1,2.3s1.3,1.3,1.7,1.3c3,0,7-4.3,8.3-5.7
		c1.3-1.3,4-4.7,4-6.3c0-1.7-2-1.7-2.3-1.7c-1.7,0-4.3,2-4.3,3.7c0,1,1,1.7,1.3,1.7c0,0-2,2.7-4.3,2.7c-2.3,0-2.7-1.3-2.7-2
		c0-2.7,5-7.7,10.6-7.7c2.7,0,6,0.7,9.3,0.7c0,0-6,7-6,10.6c0,1.3,1.3,2,2,2c0.3,0,0.7,0,0.7-0.3C40.5,32.6,39.5,38.3,35.5,38.3z
		 M53.1,23c0,1-2.3,3.3-3.3,4.3s-2.7,3-2.7,4.7c0,1.3,1,1.7,2,1.7c0.7,0,2-0.7,2-0.7c-0.7,1-3,5.3-6,5.3c-1.7,0-2.7-1-2.7-2
		c0-2.3,3.3-6,4.3-7c0.7-1,2.3-3,2.3-4.3s-0.3-1.3-0.3-1.7c0,0,1.7-1.3,3.7-1.3C53.5,22.3,53.1,23,53.1,23z M64.1,29.3
		c-0.3,0-0.3-0.3-0.3-0.7c0-0.3-0.3-0.7-0.7-0.7c-0.3,0-0.7,0.3-0.7,1c0,0.3,0.3,2.3,0.7,3.3c0.3,0.7,0.7,2.3,0.7,3.7
		c0,1-0.7,2.7-2.3,2.7c-1.7,0-3.3-2-3.7-2.7c0,0-1.3,1.3-2.3,1.3s-1.3-0.7-1.3-1.3c0-1,0.3-2.7,2.3-3.3c2-0.7,2.3-1.3,3-2.3
		c1-1.3,1.7-2.7,3-2.7C63.5,27.3,64.4,28.3,64.1,29.3C64.4,29.3,64.4,29.3,64.1,29.3z"/>
	<g>
		<path style="fill:#FAEC0F;" d="M37.5,31c0-3.7,6-10.6,6-10.6c-3.3,0-6.7-0.7-9.3-0.7c-5.7,0-10.6,5.3-10.6,7.7c0,0.7,0.3,2,2.7,2
			c2.3,0,4.7-2.7,4.7-2.7c-0.3,0-1.3-0.3-1.3-1.3c0-1.7,2.7-3.7,4.3-3.7c0.3,0,2.3,0,2.3,1.7c0,1.7-3,5-4,6.3C31,31,27,35.4,24,35.4
			c-0.3,0-1.7,0-1.7-1.3c0-1.3,1-2.3,1-2.3c-4.7,0-9.6,7.3-9.6,12.3c0,0.3,0,2.3,2,2.3c3,0,9-5.7,11.6-9.3c2.7-3.3,4.7-6,7-6
			c0.3,0,1,0,1,0c-1,2-1.7,3.7-1.7,5c0,0.3,0.3,2.3,2.3,2.3c3.7,0,5-5.7,5-5.7c-0.3,0-0.7,0.3-1,0.3C38.8,33,37.5,32.3,37.5,31z
			 M34.8,28.7c-0.3,0-1,0-1.3,0c0,0,4.3-5.7,5-6.3c-0.3,1.3-0.7,2-1.3,3.3c-0.3,1.3-1,2.3-1.7,3.3C35.8,28.7,35.2,28.7,34.8,28.7z"
			/>
		<path style="fill:#FAEC0F;" d="M51.1,33c-0.7,1-3,5.3-6,5.3c-1.7,0-2.7-1-2.7-2c0-2.3,3.3-6,4.3-7c0.7-1,2.3-3,2.3-4.3
			s-0.3-1.3-0.3-1.7c0,0,1.7-1.3,3.7-1.3c1,0,1,0.7,1,0.7c0,1-2.3,3.3-3.3,4.3s-2.7,3-2.7,4.7c0,1.3,1,1.7,2,1.7
			C50.1,33.6,51.1,33,51.1,33z"/>
		<path style="fill:#FAEC0F;" d="M56.1,27.3c-0.3,0-1-0.7-1-1.3s0.7-1.3,1.7-1.3s1.3,0.7,1.3,1.7s-1,2.3-2.7,2.3
			C55.5,28.7,56.1,28,56.1,27.3z"/>
		<path style="fill:#FAEC0F;" d="M62.1,27.3c-1,0-2,1.7-3,2.7c-0.7,1-1,1.3-3,2.3c-2,0.7-2.3,2.7-2.3,3.3c0,0.7,0.3,1.3,1.3,1.3
			s2.3-1.3,2.3-1.3c0.3,0.7,2.3,2.7,3.7,2.7c1.7,0,2.3-1.3,2.3-2.7c0-1-0.3-3-0.7-3.7c-0.3-0.7-0.7-2.7-0.7-3.3c0-0.3,0.3-1,0.7-1
			c0.3,0,0.7,0.3,0.7,0.7c0,0.3,0.3,0.7,0.3,0.7c0.3,0,0.3,0,0.3-0.3C64.4,28.3,63.5,27.3,62.1,27.3z M60.8,33.3
			c-0.3,0-1.3-0.3-1.7-1.3l1.7-2.3c0,0,1,0.7,1,2.3S61.1,33.3,60.8,33.3z"/>
	</g>
	<path style="fill:#FFFFFF;" d="M35.2,28c0,0-0.3,0-0.7,0c0.7-1,2-2.3,2.7-3.7c0,0.3-0.3,1-0.7,1.3C36.8,25.7,35.5,28,35.2,28z"/>
	<path style="fill:#FFFFFF;" d="M33.5,22c-0.7,0.3-1.7,1-2.3,1.3c-0.7,0.7-1,1.3-1,1.7c0,1,0.7,1,0.7,1c-0.3,0-1-0.7-1-1
		C29.9,24,32.2,22,33.5,22L33.5,22z"/>
	<path style="fill:#FFFFFF;" d="M39.5,32.6c-0.7,0-1.3-0.7-1.3-1.7c0-3.7,5.7-10.3,6-10.3l0.3-0.3h0.7L44.5,21
		c-1.7,2-5.7,7.3-5.7,10C38.5,32,39.2,32.3,39.5,32.6z"/>
	<path style="fill:#FFFFFF;" d="M36.5,38.6c3.3-0.7,4.3-5.7,4.7-6v-0.3l0.7-0.3v0.7C41.5,33.3,40.5,38,36.5,38.6z"/>
	<path style="fill:#FFFFFF;" d="M33.8,31.3c-2,0.3-4,3.3-6.3,6.3c-2,3-7.3,8.3-11.6,9c3.3-1,9-6.3,11.3-9.3
		C29.9,34,31.8,31.3,33.8,31.3z"/>
	<path style="fill:#FFFFFF;" d="M23.2,35c-0.3,0-0.3,0-0.7-0.3c0,0-0.3-0.3-0.3-0.7c0-1.3,1-2.3,1-2.3h0.7c0,0-1.3,1.3-1.3,2.3
		C22.9,34.6,23.2,35,23.2,35z"/>
	<path style="fill:#FFFFFF;" d="M32.2,26.7c-0.3,0.7-2.3,3-5,3.3c2-0.7,3.7-2.7,4-2.7l0.3-0.3C31.5,26.7,32.2,26.7,32.2,26.7z"/>
	<path style="fill:#FFFFFF;" d="M46.2,38.6c3-0.7,4.7-4,5.3-5.3l0.3-0.7l0.7-0.3l-0.7,1.3C51.5,35,49.1,38.3,46.2,38.6z"/>
	<path style="fill:#FFFFFF;" d="M54.1,23.3L54.1,23.3c0,1.3-1,2.7-3.3,4.7v0.3c-1,1-2.3,3-2.3,4c0,0.7,0.7,1.3,0.7,1.3
		c-0.7,0-1.3-0.3-1.3-1.3c0-1.3,1.3-3.3,2.3-4.3v-0.3c2-2,3.3-3.7,3.3-4.7l0,0l0,0c0,0,0-0.3,0-0.7C53.5,22.3,54.1,22.7,54.1,23.3z"
		/>
	<path style="fill:#FFFFFF;" d="M57.1,29c1.3-0.3,2-1.3,2-2.3c0-0.7,0-1-0.7-1.3c0.3,0.3,0.3,0.7,0.3,1.3
		C58.7,27.3,58.1,28.3,57.1,29"/>
	<path style="fill:#FFFFFF;" d="M64.1,27.7c0.7,0.3,1,1,1,1.7c0,0,0,0.3-0.3,0.7l0,0c0,0,0.7,0,0.7-0.7C65.5,28.7,64.8,28,64.1,27.7
		z"/>
	<path style="fill:#FFFFFF;" d="M63.8,32c0,0.7,0.7,2.3,0.7,3.7c0,1.7-1.3,3-3,3c1.3-0.3,2.3-1.7,2.3-3c0-1.3-0.3-3-0.7-3.7
		c-0.3-1-0.7-2.7-0.7-3c0,0,0-0.3,0.3-0.3s0.3,0,0.3,0s0,0.3,0,0.7C63.5,29.6,63.8,31.6,63.8,32z"/>
	<path style="fill:#FFFFFF;" d="M55.5,37.6c1,0,1.7-0.7,2-1l0.3,0.3C57.1,37.3,56.5,37.6,55.5,37.6z"/>
	<path style="fill:#FFFFFF;" d="M60.8,32.6c-0.3,0-1-0.3-1-0.7c0.3-0.7,1-1.3,1.3-1.7l0.3,0.3c-0.3,0.3-1,1.3-1,1.3
		S60.5,32.3,60.8,32.6z"/>
	<g>
		<g>
			<path style="fill:#FFFFFF;" d="M26.2,40h39.9v0.7c1,0.3,1.3,2.3,1.3,3.3s-0.3,3-1.3,3.3V48H23.5v-0.3c-1-0.3-1.3-2.3-1.3-3.3
				c0-0.3,0,0,0,0C21.9,44,23.5,42.6,26.2,40z"/>
			<g>
				<path style="fill:#020202;" d="M65.5,40.6h-40L25.2,41C25.2,40.6,65.1,40.6,65.5,40.6c0,0.3,0,0.7,0,0.7l0,0
					c0.7,0.3,1.3,1.3,1.3,3c0,1.7-0.7,2.7-1.3,3l0,0v0.3c-0.3,0-40.9,0-41.3,0v-0.3l0,0c-1-0.3-1.3-1.3-1.3-3c0-0.3,0-1,0-1.3h-0.3
					c0,0.3,0,0.7,0,1c0,1.3,0.7,2.7,1.3,3v0.7h41.6c0,0,0-0.3,0-0.7c1-0.3,1.3-1.7,1.3-3s-0.7-2.7-1.3-3V40.6L65.5,40.6L65.5,40.6z"
					/>
			</g>
		</g>
		<g>
			<g>
				<path style="fill:#020202;" d="M26.9,46.3h-2v-0.7h0.3c0.3,0,0.3,0,0.3,0s0,0,0-0.3V43c0-0.3,0-0.3,0-0.3s0,0-0.3,0h-0.3V42h2
					v0.7h-0.3c-0.3,0-0.3,0-0.3,0s0,0,0,0.3v2.3c0,0.3,0,0.3,0,0.3s0,0,0.3,0h0.3V46.3L26.9,46.3z"/>
			</g>
			<g>
				<path style="fill:#020202;" d="M29.9,46.3h-2.3v-0.7h0.3c0.3,0,0.3,0,0.3,0s0,0,0-0.3v-2.7l0,0c-0.3,0-0.3,0-0.7,0.3
					c0,0,0,0.3,0,0.7l0,0h-0.7V42h3.3v1.7h-0.7l0,0c0-0.3,0-0.7,0-0.7s-0.3-0.3-0.7-0.3l0,0v2.7c0,0.3,0,0.3,0,0.3s0,0,0.3,0h0.3
					L29.9,46.3L29.9,46.3z"/>
			</g>
			<g>
				<path style="fill:#020202;" d="M34.2,46.3h-2v-0.7h0.3h0.3l0,0l0,0l0,0v-0.3h-1v0.3l0,0l0,0l0,0c0,0,0,0,0.3,0h0.3v0.7h-1.7
					v-0.7H31c0,0,0,0,0.3,0c0,0,0,0,0-0.3l1-3.3h1l1,3.3c0,0.3,0,0.3,0,0.3s0,0,0.3,0h0.3v0.7H34.2z M31.8,44.3h0.7l-0.3-1
					L31.8,44.3L31.8,44.3z"/>
			</g>
			<g>
				<path style="fill:#020202;" d="M37.8,46.3h-3.3v-0.7h0.3c0.3,0,0.3,0,0.3,0s0,0,0-0.3V43c0-0.3,0-0.3,0-0.3s0,0-0.3,0h-0.7V42h2
					v0.7h-0.3c-0.3,0-0.3,0-0.3,0s0,0,0,0.3v2.7h0.3c0.3,0,0.7,0,0.7-0.3c0,0,0.3-0.3,0.3-1l0,0h0.7v2h0.3V46.3z"/>
			</g>
			<g>
				<path style="fill:#020202;" d="M39.8,46.3h-2v-0.7h0.3c0.3,0,0.3,0,0.3,0s0,0,0-0.3V43c0-0.3,0-0.3,0-0.3s0,0-0.3,0h-0.3V42h2
					v0.7h-0.3c-0.3,0-0.3,0-0.3,0s0,0,0,0.3v2.3c0,0.3,0,0.3,0,0.3s0,0,0.3,0h0.3V46.3L39.8,46.3z"/>
			</g>
			<g>
				<path style="fill:#020202;" d="M44.2,46.3h-2v-0.7h0.3h0.3l0,0l0,0l0,0v-0.3h-1v0.3l0,0l0,0l0,0c0,0,0,0,0.3,0h0.3v0.7h-1.7
					v-0.7H41c0,0,0,0,0.3,0c0,0,0,0,0-0.3l1-3.3h1l1,3.3c0,0.3,0,0.3,0,0.3s0,0,0.3,0h0.3L44.2,46.3L44.2,46.3z M41.5,44.3h0.7
					l-0.3-1L41.5,44.3L41.5,44.3z"/>
			</g>
			<g>
				<path style="fill:#020202;" d="M47.8,46.3h-1l-1.7-3v2c0,0.3,0,0.3,0,0.3s0,0,0.3,0h0.3v0.7H44v-0.7h0.3c0.3,0,0.3,0,0.3,0
					s0,0,0-0.3V43c0-0.3,0-0.3,0-0.3s0,0-0.3,0H44V42h1.7l0,0l1.3,2.7V43c0-0.3,0-0.3,0-0.3s0,0-0.3,0h-0.3V42h1.7v0.7h-0.3
					c-0.3,0-0.3,0-0.3,0s0,0,0,0.3v3.3H47.8z"/>
			</g>
			<g>
				<path style="fill:#020202;" d="M52.1,46.3h-2v-0.7h0.3c0.3,0,0.3,0,0.3,0s0,0,0-0.3V43c0-0.3,0-0.3,0-0.3s0,0-0.3,0h-0.3V42h2
					c0.3,0,0.7,0,1,0.3c0.3,0,0.3,0.3,0.3,0.7c0,0.3,0,0.3-0.3,0.7L52.8,44c0.3,0,0.3,0.3,0.7,0.3c0,0.3,0.3,0.3,0.3,0.7
					c0,0.3,0,0.7-0.3,1C53.1,46.3,52.5,46.3,52.1,46.3L52.1,46.3z M51.5,45.6L51.5,45.6c0.7,0,0.7,0,1,0c0,0,0.3-0.3,0.3-0.7
					c0-0.3,0-0.3-0.3-0.3c0,0-0.3,0-0.7,0h-0.3V45.6L51.5,45.6z M51.5,44L51.5,44c0.7,0,0.7,0,0.7,0v-0.3c0-0.3,0-0.3,0-0.3
					s-0.3,0-0.7,0h-0.3L51.5,44L51.5,44z"/>
			</g>
			<g>
				<path style="fill:#020202;" d="M57.5,46.3h-3.7v-0.7h0.3c0.3,0,0.3,0,0.3,0s0,0,0-0.3V43c0-0.3,0-0.3,0-0.3s0,0-0.3,0h-0.3V42
					h3.7v1.7h-0.7l0,0c0-0.3,0-0.7-0.3-0.7c0,0-0.3-0.3-0.7-0.3h-0.7v1l0,0c0.3,0,0.3,0,0.3,0s0-0.3,0-0.7l0,0h0.7v2h-0.7v-0.3
					c0-0.3,0-0.3,0-0.3s0,0-0.3,0l0,0v1.3h0.7c0.3,0,0.7,0,0.7-0.3c0,0,0.3-0.3,0.3-1l0,0h0.7V46.3L57.5,46.3z"/>
			</g>
			<g>
				<path style="fill:#020202;" d="M61.1,46.3h-3.7v-0.7h0.3c0.3,0,0.3,0,0.3,0s0,0,0-0.3V43c0-0.3,0-0.3,0-0.3s0,0-0.3,0h-0.3V42
					h3.7v1.7h-0.3l0,0c0-0.3,0-0.7-0.3-0.7c0,0-0.3-0.3-0.7-0.3h-0.7v1l0,0c0.3,0,0.3,0,0.3,0s0-0.3,0-0.7l0,0h0.7v2h-0.7v-0.3
					c0-0.3,0-0.3,0-0.3s0,0-0.3,0l0,0v1.3h0.7c0.3,0,0.7,0,0.7-0.3c0,0,0.3-0.3,0.3-1l0,0h0.7L61.1,46.3L61.1,46.3z"/>
			</g>
			<g>
				<path style="fill:#020202;" d="M63.5,46.3h-2v-0.7h0.3c0.3,0,0.3,0,0.3,0s0,0,0-0.3V43c0-0.3,0-0.3,0-0.3s0,0-0.3,0h-0.3V42h3.3
					v1.7h-0.7l0,0c0-0.3,0-0.7-0.3-1c0,0-0.3-0.3-0.7-0.3h-0.3v1l0,0h0.3c0,0,0-0.3,0-0.7l0,0h0.7v2h-0.7v-0.3c0-0.3,0-0.3,0-0.3
					s0,0-0.3,0l0,0v1c0,0.3,0,0.3,0,0.3s0,0,0.3,0h0.3L63.5,46.3L63.5,46.3z"/>
			</g>
		</g>
	</g>
	<path style="fill:#FFFFFF;" d="M65.1,38.6V38h-0.3l0,0h0.3l0,0h-0.3L65.1,38.6L65.1,38.6L65.1,38.6z M65.5,38.6V38h0.3L65.5,38.6
		l0.3-0.7h0.3v0.7l0,0v-0.3L65.5,38.6L65.5,38.6v-0.3V38.6L65.5,38.6z"/>
</g>
</svg>
