<?xml version="1.0" encoding="utf-8"?>
<!-- Generator: Adobe Illustrator 16.0.0, SVG Export Plug-In . SVG Version: 6.00 Build 0)  -->
<!DOCTYPE svg PUBLIC "-//W3C//DTD SVG 1.1//EN" "http://www.w3.org/Graphics/SVG/1.1/DTD/svg11.dtd">
<svg version="1.1" xmlns="http://www.w3.org/2000/svg" xmlns:xlink="http://www.w3.org/1999/xlink" x="0px" y="0px" width="100px"
	 height="100px" viewBox="0 0 100 100" style="enable-background:new 0 0 100 100;" xml:space="preserve">
<g id="Emoticon_x5F_smile">
	<g>
		<path d="M29.4,36.2c0-2.9,2-5,4.7-5c2.7,0,4.6,2,4.6,5c0,2.7-1.8,4.9-4.7,4.9C31.3,41,29.4,38.9,29.4,36.2z M29.4,63.9
			c0-2.9,2-5,4.7-5c2.7,0,4.6,2,4.6,5c0,2.7-1.8,4.9-4.7,4.9C31.3,68.8,29.4,66.7,29.4,63.9z"/>
		<path d="M50.3,87.5c6.5-9.1,11.6-21.1,11.6-37.7c0-16.5-5-28.3-11.6-37.4h6.3C62.4,20,68.6,31.8,68.6,50
			c0,18.1-6.2,29.8-12.1,37.6H50.3z"/>
	</g>
</g>
<g id="Emoticon_x5F_heart">
	<g>
		<path d="M136.8,48.4L168.6,32v4.7l-26.8,13.4v0.1l26.8,13.4v4.7l-31.8-16.4V48.4z"/>
		<path d="M176.2,65.8c1.8,1.1,5.9,2.9,10.2,2.9c8,0,10.4-5.1,10.4-8.9c-0.1-6.4-5.9-9.2-11.9-9.2h-3.5V46h3.5
			c4.5,0,10.2-2.3,10.2-7.8c0-3.7-2.3-6.9-8-6.9c-3.7,0-7.2,1.6-9.2,3l-1.6-4.5c2.4-1.8,7.1-3.5,12-3.5c9,0,13.1,5.4,13.1,10.9
			c0,4.7-2.8,8.7-8.5,10.8v0.1c5.6,1.1,10.2,5.4,10.2,11.8c0,7.3-5.7,13.8-16.7,13.8c-5.1,0-9.7-1.6-11.9-3.1L176.2,65.8z"/>
	</g>
</g>
</svg>
