<?xml version="1.0" encoding="utf-8"?>
<!-- Generator: Adobe Illustrator 16.0.0, SVG Export Plug-In . SVG Version: 6.00 Build 0)  -->
<!DOCTYPE svg PUBLIC "-//W3C//DTD SVG 1.1//EN" "http://www.w3.org/Graphics/SVG/1.1/DTD/svg11.dtd">
<svg version="1.1" id="Layer_1" xmlns="http://www.w3.org/2000/svg" xmlns:xlink="http://www.w3.org/1999/xlink" x="0px" y="0px"
	 width="300px" height="257px" viewBox="0 0 300 257" style="enable-background:new 0 0 300 257;" xml:space="preserve">
<style type="text/css">
<![CDATA[
	.st0{fill:#010101;}
]]>
</style>
<g>
	<g>
		<path class="st0" d="M123.2,66.8c0.9-1.2,2.4-2.3,3.8-1.5c1.3,1.6-0.3,3.3-1.3,4.6c-1.6,1.8-0.7,4.3-0.4,6.5
			c0.9,4.1,0.6,8.4-0.1,12.5c2.6-2.3,5.3-4.5,7.1-7.5c1.4-4.3,3.6-8.5,7.2-11.2c2.8-2.2,6.9-2.2,10-0.6c1.7,0.8,3,2.6,2.6,4.5
			c-0.3,2.1-0.9,4.8-3.2,5.6c-1.4,0.3-3.5,0.5-4.3-1.1c-0.3-2,1.5-3.9,1-5.8c-1-0.4-1.8,0.6-2.5,1.2c-2.6,3-4.2,6.8-5,10.7
			c-0.5,2.2,0.5,5,2.8,5.8c2.2,0.7,4.5-0.5,6.4-1.7c4.3-3.1,8-7.4,9.5-12.5c-1.9-4,0.7-10,5.4-10.2c2.6,0.1,1.5,3.3,1.4,4.9
			c3.3-1.4,6.9-1,10.3-0.3c0.8,0.7,0.1,1.8-0.3,2.6c-2.9,4.6-6.3,8.9-8.7,13.7c-0.6,1-0.7,2.5,0.7,2.8c2.6-0.1,4.5-2.4,6.3-4.1
			c2-1.7,1.9-4.4,2.9-6.6c1.5-3.5,3.5-7.1,7-9c3.6-1.9,9-0.2,9.8,4c0.5,4.5-2.1,8.9-5.8,11.3c-1.9,1.4-4.3,0.9-6.4,0.3
			c-0.5,1.5-0.5,3.4,1.2,4.2c2.8,2.2,6.3,0.2,8.7-1.7c2.1-1.8,4.6-3.6,5.3-6.4c1.6-4.9,4.1-10.1,9-12.3c3-1.4,6.6-1,9.5,0.6
			c2-2.2,5.2-1.3,7.7-1.1c-2.4,6.2-6.6,11.6-8.7,17.8c-0.8,1.9,1.8,2.9,3.1,1.9c2-1.3,3.7-3,5.1-4.9c2.8-4.5,4.5-9.5,7.4-13.8
			c1.7-0.2,3.5-0.1,5.2-0.1c0.2,0.4,0.5,1.2,0.7,1.6c2-0.8,4.2-2.4,6.4-1.5c0.8,0.9,1.3,2,1.9,3.1c2.2-1.5,4.8-3.4,7.6-2.6
			c1.6,0.3,3.2,1.9,2.4,3.7c-2,4.9-6.5,8.4-7.6,13.7c-0.4,1.4,1.2,3,2.5,2.1c3.4-2.1,6-5.4,8.6-8.3c0,1.1,0,2.2,0,3.3
			c-2.3,2.8-4.8,5.5-7.6,7.8c-2.3,1.8-5.3,2.6-8.1,1.9c-1.9-0.5-3.2-2.5-2.7-4.4c0.7-4.4,4.2-7.7,5.7-11.8c-0.2-0.1-0.6-0.4-0.8-0.6
			c-1.3,0.7-2.1,1.8-3,2.9c-3,4.3-5.3,9-8.1,13.4c-0.6,1-1.7,0.3-2.5,0.1c-1.1-0.4-3.2-1.2-2.4-2.7c2.1-4.9,5.7-9,7.7-14
			c-1.8-0.5-2.9,1.3-3.9,2.5c-3.4,4.5-5.8,9.6-8.3,14.6c-1.7-0.1-4.3,0.3-5.3-1.5c0.1-0.6,0.2-1.7,0.3-2.3c-2.3,2-5.1,4.7-8.4,3.9
			c-1.6-0.2-2.3-1.8-2.9-3c-1.7,1.9-4.3,4.1-7.1,2.9c-3.1-1-4.5-4.3-4.7-7.3c-2.2,2.4-4.4,5-7.3,6.5c-3.6,1.9-8.6,1.3-11.2-1.8
			c-1.1-1.2-1.5-2.9-2-4.4c-2.7,2.8-5.5,5.9-9.4,7.1c-3.1,1.1-6.7-1.8-6.2-5c0.6-4.7,4-8.3,6.2-12.4c-1.5,0-3,0.1-4.5,0
			c-2.6,6-7,11.2-12.3,15.1c-2.6,1.9-6,3.2-9.2,1.9c-3.7-1.2-5.9-4.9-6.1-8.6c-2.6,3.3-5.6,6.6-9.5,8.5c-3.4,1.7-7.9,0.7-10.2-2.4
			c-1.1-1.4-1.2-3.4-1.4-5.1c-2.4,2.7-4.8,5.6-8.1,7.3c-3.4,1.7-8,1.2-10.7-1.6c-1.4-1.4-1.9-3.4-2.3-5.2c-3.1,3.6-6.7,7.2-11.6,8.2
			c-1.8,5.4-4.1,10.6-7.5,15.2c-1.3,1.8-2.9,3.5-5,4.3c-2.1,0.6-4.8,0.1-5.9-2c-1.6-2.6-0.6-5.8,1-8.1c2.6-4,6.6-6.5,10.4-9.2
			c1.4-0.9,1.8-2.6,2.5-4.1c-1.9,1.7-4.4,3.6-7.1,2.6c-2.3-0.7-3-3.3-3.1-5.5c-2.2,2.3-4.5,4.7-7.6,5.8c-3.8,1.3-8.7,0-10.7-3.7
			c-1.9-3.7-1-8.1,0.5-11.8c1.5-3.5,3.6-7.1,7.1-8.8c3.6-1.8,8.8-0.1,9.7,4.1c0.5,4.5-2.2,9.1-6,11.5c-1.9,1.3-4.2,0.7-6.3,0.1
			c-0.1,1-0.6,2.2,0.1,3.2c1.3,1.7,3.8,2.6,5.8,1.6c3.3-1.3,6.1-3.8,8.3-6.6c2.1-4,3.7-8.3,5.9-12.3c1.3-2.4,4.6-1.5,6.8-1.4
			c-1.6,6-6.1,10.8-7.5,16.9c0.7,1.6,2.7,0.6,3.4-0.5c2.3-3.2,3.6-6.9,5.6-10.3c1.3-2.1,1.9-4.7,3.7-6.5c1.7-0.9,3.7-0.3,5.6-0.4
			c-0.2,1.2-0.3,2.3-0.8,3.4c-2.3,6-4.7,12-6.9,18c4-1.2,7.3-4.2,9.7-7.5c1.5-4.8,3.5-10,7.8-12.9c3.6-2.5,9.6-0.8,10.5,3.7
			c0.5,4.4-2.1,8.8-5.7,11.2c-2,1.4-4.5,0.9-6.7,0.4c-1.2,3.2,2.5,6,5.5,5c4.1-1.3,7-4.6,9.7-7.7c0.1-1,0.2-1.9,0.4-2.9
			C115.9,76.1,119.5,71.4,123.2,66.8z M55.4,73.6c-1.5,1.1-2.2,3-2.9,4.6c-0.3,1-1,2.3-0.1,3.2c0.8,0.2,1.7,0.3,2.3-0.3
			c2-1.5,3.1-4.1,3.2-6.6C57.6,73.4,56.4,72.9,55.4,73.6z M100.7,73.9c-1.9,2-2.8,4.7-3.2,7.3c1,0.1,2,0.7,2.9,0
			c2.1-1.5,3.2-4.1,3.2-6.6C103.5,73.1,101.4,72.9,100.7,73.9z M185,73.5c-2,1.4-2.9,4-3.6,6.3c-0.6,1.3,1.1,2.2,2.2,1.7
			c2.3-1.2,3.4-3.9,3.8-6.3C187.6,73.9,186.1,72.8,185,73.5z M206.9,73.6c-3.9,1.9-5.3,6.6-6.5,10.5c-0.3,1.7-1.3,4.1,0.5,5.2
			c2,0.3,3.4-1.6,4.5-3.1c2.2-3.4,4.1-7.2,5.2-11.2C210.5,73.3,208.2,73,206.9,73.6z M115.4,79.9c0.4,2.4-0.3,4.6-1.8,6.4
			c0.4,1.8,2.3,3.3,4.2,2.7c1.9-0.5,3.1-2.3,3.6-4.1c1-3.6,0.4-7.4-0.4-11C118.8,75.6,117,77.7,115.4,79.9z M62.9,108.3
			c-0.9,1.8,1.8,3.1,2.8,1.6c2.5-3.1,3.9-7,5.4-10.6C67.8,101.6,64.1,104.3,62.9,108.3z"/>
	</g>
	<g>
		<path class="st0" d="M162.4,109.1c1.1-0.5,2.3-1,3.4-1.4c-0.1,7.6-1.5,15.1-1,22.7c0.4,0,1.3,0.1,1.7,0.1c1-1.9,1.8-3.8,2.6-5.8
			c0.2,0.5,0.5,1.4,0.6,1.9c-1,2.9-2.1,6.6-5.6,7.4c-0.3-0.3-0.9-0.9-1.2-1.2c-0.9,1.3-1.8,3.1-3.6,3c-1.8,0.2-2.9-1.3-3.9-2.6
			c-0.7,2.1-1.6,4.4-3.5,5.8c-1.3,1.1-3.8,0.8-4.3-1c-0.6-2.8,0.4-5.6,0.4-8.4c-2.9,3.3-2.3,8-3,12c-1,0.3-2.1,0.6-3.1,0.9
			c0-0.5,0-1.4,0-1.8c-0.7,1.4-1.4,3.1-3,3.6c-0.9,0.3-1.7-0.3-2.5-0.6c-0.7,1.2-1.6,2.8-3.3,2.6c-2.7-0.2-4-3-4.2-5.3
			c-0.2-3-0.1-6.6,2.4-8.7c1.2-1.2,2.8-1.2,4.4-1.4c1-1,2.2-1.6,3.6-1.9c0.9,3.7-1.3,7.8-0.3,11.6c1.8,0.1,2.5-1.8,2.9-3.2
			c0.6-3.1,0.6-6.3,1.1-9.5c0.9-0.3,1.7-0.7,2.6-1c0.2,0.1,0.7,0.3,0.9,0.4c1.4-0.9,3.6-2.7,5-1c1,3.3-2.1,7.3,0.3,10.3
			c1.8-2.1,3.2-4.7,3.1-7.5c0-2.5,0.7-5.2,2.7-7c1.1-1,2.6-1.1,3.9-1.3C161.9,116.8,162,112.9,162.4,109.1z M158.9,125.1
			c-1.1,2.7-1.1,5.9,0.5,8.4c0.7-0.8,1.6-1.5,1.7-2.6c0.4-2.5,0.4-5,0.3-7.5C160.4,123.6,159.3,124,158.9,125.1z M132.3,139.1
			c0.2,1.4-0.1,3.5,1.5,4.1c2.5-2.5,1.9-6.5,1.9-9.7C132.7,133.2,132.1,136.8,132.3,139.1z"/>
	</g>
	<path class="st0" d="M200.1,160.8c2.1-3.9,8.5-4.3,11-0.7c1.3,1.9,1.3,4.4,1.3,6.6c-1.6,0.2-3.1,0.3-4.7,0.5
		c-0.2-1.7,0.4-4.2-1.5-5.1c-2.6-0.2-2.6,3.2-2,4.9c2.3,5.3,7.1,9.3,8.3,15.1c0.7,3,0.4,6.9-2.5,8.7c-3,1.7-7.5,1.4-9.6-1.7
		c-1.7-2.2-1.3-5.1-1.3-7.6c1.6-0.1,3.1-0.1,4.7-0.2c0.2,1.9-0.5,4.4,1.2,5.8c3.1,1.1,3.5-3.1,2.7-5.2c-2.1-4.9-6.4-8.7-8-13.9
		C199,165.7,198.9,163,200.1,160.8z"/>
	<path class="st0" d="M80.5,158.3c3.8,0,7.6,0,11.4,0c0,1.5,0,3,0,4.4c-2.2,0-4.4,0-6.7,0c0,3,0,6,0,9c1.5,0,3.1,0,4.6,0
		c0,1.5,0,3,0,4.4c-1.5,0-3.1,0-4.6,0c0,5,0,10.1,0,15.1c-1.6,0-3.2,0-4.7,0C80.5,180.3,80.5,169.3,80.5,158.3z"/>
	<g>
		<path class="st0" d="M99.1,158.3c3.2,0.2,6.5-0.5,9.5,0.7c3.4,1.8,3.7,6.2,3.7,9.6c0.1,2.6-0.8,5-2.3,7.1c1,5.2,2.1,10.4,3.1,15.6
			c-1.7,0-3.4,0-5.1,0c-1-4.8-1.8-9.5-2.7-14.3c-0.3,0.1-1,0.4-1.3,0.6c-0.3,4.6,0,9.1-0.1,13.7c-1.6,0-3.3,0-4.9,0
			C99.1,180.3,99.1,169.3,99.1,158.3z M104,162.6c0,3.4,0,6.8,0,10.2c1.2-0.4,3.1-0.3,3.3-1.8c0.3-2.1,0.3-4.3,0-6.4
			C107.1,162.9,105.3,162.8,104,162.6z"/>
	</g>
	<path class="st0" d="M121.3,158.3c1.6,0,3.2,0,4.7,0c0,11,0,22,0,33c-1.6,0-3.2,0-4.7,0C121.3,180.3,121.3,169.3,121.3,158.3z"/>
	<path class="st0" d="M134.8,158.3c3.8,0,7.6,0,11.4,0c0,1.5,0,3,0,4.4c-2.2,0-4.3,0-6.5,0c0,3,0,6,0,9c1.5,0,3,0,4.4,0
		c0,1.5,0,3,0,4.4c-1.5,0-3,0-4.4,0c0,3.5,0,7.1,0,10.7c2.3,0,4.5,0,6.8,0c0,1.5,0,3,0,4.4c-3.9,0-7.8,0-11.7,0
		C134.8,180.3,134.8,169.3,134.8,158.3z"/>
	<path class="st0" d="M154.3,191.3c0-11,0-22,0-33c1.3,0,2.7,0,4,0c2,6.3,3.9,12.5,5.9,18.8c0-6.3,0-12.5,0-18.8c1.6,0,3.3,0,4.9,0
		c0,11,0,22,0,33c-1.6,0-3.3,0-4.9,0c-1.7-5.6-3.4-11.1-5.2-16.7c0,5.6,0,11.1,0,16.7C157.5,191.3,155.9,191.3,154.3,191.3z"/>
	<g>
		<path class="st0" d="M177.9,191.3c0-11,0-22,0-33c2.7,0.1,5.5-0.2,8.1,0.2c3.1,0.5,5,3.7,5,6.7c0.1,6.3,0,12.6,0,18.9
			c0.1,2.9-1.5,6.1-4.5,6.9C183.7,191.6,180.8,191.2,177.9,191.3z M182.6,162.6c0,8.1,0,16.3,0,24.4c1-0.2,2.2-0.1,3-0.9
			c0.7-1.1,0.4-2.6,0.5-3.8c-0.1-5.9,0.1-11.8-0.1-17.7C185.9,162.8,183.9,162.9,182.6,162.6z"/>
	</g>
</g>
</svg>
