<?xml version="1.0" encoding="utf-8"?>
<!-- Generator: Adobe Illustrator 16.0.0, SVG Export Plug-In . SVG Version: 6.00 Build 0)  -->
<!DOCTYPE svg PUBLIC "-//W3C//DTD SVG 1.1//EN" "http://www.w3.org/Graphics/SVG/1.1/DTD/svg11.dtd">
<svg version="1.1" id="Layer_1" xmlns="http://www.w3.org/2000/svg" xmlns:xlink="http://www.w3.org/1999/xlink" x="0px" y="0px"
	 width="80px" height="100px" viewBox="0 0 80 100" style="enable-background:new 0 0 80 100;" xml:space="preserve">
<path style="fill:#761416;" d="M39.8,2.1C19.9,2.1,3.9,18.2,3.9,38c0,8,2.8,15.5,7.3,21.6L40,97.9l28.8-38.4
	c4.5-6,7.3-13.5,7.3-21.6C75.6,18.2,59.6,2.1,39.8,2.1z"/>
<path style="fill:#FAEC0F;" d="M39.8,61.8C26.5,61.8,15.9,51,15.9,38c0-13.3,10.8-23.8,23.8-23.8C53,14.1,63.6,24.9,63.6,38
	C63.8,51.3,53,61.8,39.8,61.8z"/>
<path style="fill:#FFFFFF;" d="M65.7,37.3C65.7,51.5,54.2,63,40,63c-14.2,0-25.7-11.5-25.7-25.7c0-14.2,11.5-25.7,25.7-25.7
	C54.2,11.6,65.7,23.1,65.7,37.3z"/>
<g>
	<g>
		<g>
			<path style="fill:#761416;" d="M40.3,21.4c0.5-0.3,1.1-0.3,1.6,0c0.5,0.3,0.8,0.8,0.8,1.3c0,0.5-0.3,1.3-0.5,1.9
				c-0.3,0.5-0.8,1.1-1.1,1.3c-0.3,0.3-0.3,0.3-0.5,0.5c0,0.5,0.3,1.1,0,1.3c-0.3,0.3-0.8,0.3-1.1,0c-0.3-0.3-0.3-0.5-0.3-0.5
				c0-0.3,0-0.5,0-0.8L39,26.2c-0.5,0.3-1.1,0.5-1.6,0.8c-0.5,0.3-1.3,0.8-1.9,1.1c0.5,0,1.1,0.5,1.1,1.1c0,0.8-0.3,1.3-0.5,2.1
				c0,0.3-0.3,0.5-0.5,0.8c0.5,0,1.1,0.3,1.3,0.8c0,0,0,0.3,0.3,0.3c0.3-0.3,0.5-0.8,0.8-1.1c0.5-0.5,1.1-0.8,1.6-0.8s1.3-0.3,1.9,0
				c0.3,0,0.5,0.3,0.5,0.5c0.3,0,0.3-0.3,0.5-0.3c0.5-0.3,1.3-0.5,2.1-0.5c0.5,0,1.1,0,1.3,0.5c0.3,0.3,0.3,0.8,0.3,1.1
				c0,0.3-0.3,0.5-0.5,0.8c-0.3,0.5-0.8,0.8-1.1,1.3c0.3-0.3,0.5-0.5,0.8-0.8c1.1-1.1,1.9-1.9,2.9-2.9c0.3-0.3,0.5-0.3,0.8-0.5
				c0.5-0.3,0.8-0.3,1.3-0.5c0.3,0,0.5,0,0.5,0c0.5,0,0.8,0.5,0.8,1.1c0,0.3,0,0.3,0,0.5c1.1-1.9,2.4-3.4,3.7-5.3
				c0.3-0.3,0.5-0.5,0.8-0.8c0.3-0.3,0.5-0.3,0.8-0.5c0.5-0.3,1.3-0.3,1.9-0.3c0.3,0,0.8,0.3,1.1,0.5c0.3,0.3,0.3,1.1,0,1.3
				c-0.5,0.5-0.8,0.8-1.1,1.3c-0.5,0.8-1.1,1.3-1.6,2.1c-0.3,0.3-0.5,0.5-0.5,0.8c0.5,0,1.1-0.3,1.6,0c0.5,0,1.1,0.3,1.3,0.8
				c0.3,0.3,0.3,0.8,0,1.3c-0.3,0.8-0.8,1.3-1.3,1.9c0.3,0,0.5,0,0.8,0c0.8,0.5,1.1,1.6,0.3,2.1c-0.8,0.5-1.3,1.3-2.1,1.9
				c0.8,0.3,1.6,0.8,1.9,1.3c0.8,1.1,0.8,2.7,0.3,3.7c0,0.3-0.3,0.5-0.5,0.8c0,0,0,0.3,0.3,0.3c0.5,0.8,0.5,1.6,0.8,2.1
				c0,0.8,0,1.3,0,2.1c-0.3,0-0.3,0-0.5,0c-3.4,0-6.9,0-10.1,0c-0.8,0-1.6,0-2.4,0c0-0.3,0-0.5,0-0.8c-0.5,0.5-1.1,0.8-1.9,0.8
				c-0.5,0.3-1.1,0.3-1.6,0.3c-0.5,0-0.8,0-1.3-0.3c-0.3,0-0.3,0-0.5,0c-1.3,0-2.7,0-4,0h-0.3c-0.3-0.3-0.5-0.5-0.8-0.8
				c0,0.3,0,0.5,0,0.8c-0.8,0-1.6,0-2.4,0c-0.5,0-0.8,0-1.3,0h-0.3c0-0.3,0-0.3,0-0.5c-0.8,0.5-1.9,0.8-2.7,0.8
				c-0.8,0-1.6,0-2.1-0.3c-0.8-0.3-1.3-0.8-1.9-1.3c-0.3,0.3-0.5,0.5-0.8,0.8c-0.3,0.3-0.5,0.3-0.8,0.3C23.8,49,23,49,22.5,49
				c-1.1,0-2.4,0-3.4,0c0-2.6,0-5.3,0-8c0-0.3-0.3-0.3-0.3-0.5c-0.3-0.5-0.3-1.1,0-1.6c0.5-1.1,1.3-2.1,1.9-3.2
				c0.5-0.5,0.8-1.3,1.3-1.9c1.1-1.3,1.9-2.4,2.9-3.7s2.1-2.9,3.2-4.2l0.3-0.3c0-0.3,0-0.3,0-0.5c0-0.5,0.5-0.8,0.8-1.3
				c0.8-0.5,1.6-1.1,2.4-1.3c0.5-0.3,1.3-0.3,1.9-0.3c0.3,0,0.8,0.3,0.8,0.5c0.3,0.3,0.3,0.8,0,1.1c-0.3,0.3-0.5,0.5-0.8,0.8
				c-0.3,0.3-0.3,0.3-0.5,0.5c0,0,0,0,0.3,0c1.6-1.3,3.2-2.4,5-3.4C38.7,21.9,39.5,21.7,40.3,21.4z M40.3,22.5
				c-0.8,0.3-1.6,0.8-2.1,1.1c-1.1,0.5-1.9,1.3-2.9,2.1c-2.9,2.1-5.8,4.5-8.7,6.6c0.3-0.3,0.3-0.5,0.5-0.8c1.3-2.1,2.9-4,4.5-5.8
				c0.5-0.5,1.1-1.1,1.6-1.6c0-0.3-0.5-0.3-0.5-0.3c-0.5,0-0.8,0.3-1.3,0.3c-0.5,0.3-1.1,0.5-1.6,1.1c-0.3,0.3-0.3,0.5-0.3,0.8
				c0,0.3,0.5,0.3,0.8,0.5c-0.3,0.3-0.5,0.3-0.8,0c-1.6,1.9-2.9,3.7-4.5,5.6c-1.1,1.3-2.1,2.7-3.2,4c-0.5,0.8-1.3,1.9-1.9,2.6
				c-0.3,0.3-0.3,0.8-0.5,1.1V40c0.3,0.3,0.5,0,0.8,0c0.5,0,1.1-0.3,1.9-0.5c0.5-0.3,1.1-0.5,1.6-0.8c0,0,0.3,0,0.3-0.3
				c-0.3,0-0.3-0.3-0.5-0.3c-0.3-0.5,0-0.8,0-1.3c0,0.3,0,0.5,0,0.8c0.3-1.1,0.8-1.9,1.3-2.7c-0.3-0.3-0.3-0.3-0.5-0.3
				c0,0-0.3,0-0.3,0.3c0-0.3,0.3-0.5,0.3-0.5c0.3,0,0.5,0,0.5,0.3c0.5,0.3,0.8,0.8,1.1,1.3c1.6,2.1,2.9,4.2,4.5,6.1
				c0.5,0.5,1.1,1.3,1.9,1.6v-0.3c0,0.3,0,0.5,0.3,0.8c0.3,0.3,0.5,0.3,0.5,0.3c0.3,0.3,0.3,0.5,0.3,0.8c0,0.3-0.3,0.8,0,1.1
				c0,0.3,0.5,0.3,0.5,0c0.3-0.3,0-0.5,0-0.8c-0.3-0.5,0-1.3,0.5-1.9V44c0.8-0.3,1.6-0.8,2.4-1.6c0.3-0.3,0.5-0.5,0.8-0.8v-0.3
				c-0.5,0.3-0.8,0.5-1.3,0.5c-0.5,0-1.1,0-1.6,0c-0.3-0.3-0.5-0.3-1.1-0.5c-1.6-1.1-2.7-2.4-4-3.7c-0.3-0.3-0.5-0.5-0.8-0.8
				c-0.5-0.8-1.3-1.3-1.9-2.1c-0.3-0.3-0.5-0.5-0.5-0.8c0-0.3,0-0.5,0-0.8c0,0.3,0,0.3,0,0.5c2.4-2.1,4.8-4,7.4-5.8
				c1.6-1.1,3.2-2.1,5-2.9c-0.3,0-0.5,0-0.5,0c0.3-0.3,0.5-0.3,1.1-0.3l0,0c0.3,0,0.5,0.5,0.8,0.8c0,0.3,0,0.8,0,1.1
				c0,0.3,0,0.3,0,0.5c0,0,0,0,0.3,0c0.3,0,0.3-0.3,0.3-0.5c0-0.8-0.3-1.6,0.3-2.1c0.3-0.5,0.5-0.8,0.8-1.1c0-0.3,0.3-0.3,0.3-0.5
				c-0.3,0.5-0.5,1.1-0.8,1.6c0.3-0.3,0.3-0.5,0.5-0.5c0.3-0.5,0.5-0.8,0.5-1.3c0-0.3,0-0.5-0.3-0.5C41.1,22.2,40.5,22.2,40.3,22.5z
				 M58.3,25.9c-0.5,0-0.8,0-1.3,0.3c-0.3,0-0.3,0.3-0.5,0.3c-1.6,1.9-2.9,4-4.2,6.1c-0.3,0.5-0.8,1.1-1.1,1.6c0,0.3,0,0.5,0,0.8
				c-0.3,0.3-0.5,0.8-0.8,0.8c-0.5,0.8-0.8,1.6-1.1,2.4c0,0.3,0,0.3,0,0.3c0.3,0.3,0.5,0.3,1.1,0.3c0.3,0,0.5,0,0.5-0.3
				c0.8-1.3,1.9-2.7,3.2-3.7c0.5-0.5,1.1-1.1,1.6-1.3c0.3,0,0.5-0.3,0.8,0c-0.3,0-0.5,0-0.5,0.3c-0.5,0.8-1.1,1.6-1.6,2.4
				c-0.3,0.5-0.8,1.1-0.8,1.9c0,0.3,0,0.5,0.3,0.8c0.5,0.3,1.1,0.3,1.3,0c0.8-0.3,1.3-0.5,1.9-1.1c0.5-0.5,1.1-0.8,1.6-1.3
				c0.3-0.3,0-0.5,0-0.5s0,0-0.3,0c-0.5,0.5-1.1,1.1-1.9,1.6c-0.3,0.3-0.8,0.5-1.3,0.5c-0.3,0-0.3-0.3-0.5-0.5
				c0.3,0,0.3,0.3,0.5,0.3c0-0.5,0.3-0.8,0.3-1.3c0.8-1.3,1.6-2.1,2.4-3.2c0.3-0.3,0.3-0.5,0.3-0.8S57.8,32,57.5,32
				c-0.5,0-1.3,0-1.9,0.5c-1.1,0.5-1.9,1.3-2.4,1.9c-0.5,0.3-0.8,0.8-1.3,1.3v-0.3c1.1-1.6,1.9-3.2,2.9-4.5c1.1-1.6,2.4-3.2,3.7-4.5
				c0,0,0,0,0-0.3C58.8,25.9,58.6,25.9,58.3,25.9z M34.5,29.6c-0.8,0.5-1.3,1.3-1.9,1.9c-0.5,0.5-0.8,1.3-1.1,2.1
				c0,0.3,0,0.5,0.3,0.8c0.3,0.3,0.5,0.3,0.8,0.3c0.3,0,0.8-0.3,1.1-0.3c0.3,0,0.3,0,0.3,0.3h-0.3c0,0.3-0.3,0.5-0.5,0.8
				c-0.5,0.5-0.8,1.1-1.3,1.6c-0.3,0.3-0.5,0.8-0.5,1.3c0,0.3,0.3,0.8,0.5,0.8c0.5,0.3,1.1,0,1.3-0.3c0.8-0.3,1.3-0.8,2.1-1.3
				c0,0,0,0,0.3-0.3c0.3-0.3,0.5-0.5,0.8-0.8c-0.3,0.5-0.5,1.1-0.8,1.6c0,0.3,0,0.5,0.3,0.5c0.3,0.3,0.5,0.3,0.8,0.3
				c0.5,0,1.1,0,1.3-0.3c0.8-0.3,1.3-0.8,1.9-1.3c0,0.3-0.3,0.5-0.3,0.5c0,0.3,0,0.5,0,0.8c0,0.3,0.3,0.3,0.5,0.3
				c0.5,0,0.8,0,1.3-0.3c0.8-0.3,1.6-0.8,2.1-1.3c0,0.3-0.3,0.8,0,1.1c0.3,0.3,0.5,0.5,0.8,0.5c0,0,0-0.3-0.3-0.3
				c0.3,0.3,0.3,0.5,0.5,0.8c0,0.3,0,0.8,0,1.1s0,0.5,0,0.5c0,0.3,0.3,0.3,0.5,0c0.3-0.3,0-0.8,0-1.1c0-0.3,0-0.5,0.3-0.8l0.3-0.3
				c0.3,0,0.3,0.3,0.5,0.3h0.3c0.3-0.3,0.3-0.3,0.5-0.5c0.3-0.3,0.5-0.5,1.1-0.8c-0.3,0.3-0.3,0.3-0.5,0.5c0.5-0.3,1.1-0.8,1.3-1.1
				c0.5-0.8,0.8-1.6,0.8-2.4c-0.5,0-1.1,0.3-1.6,0.3c-0.3,0.8-0.5,1.9-1.1,2.7c-0.5,0.5-1.3,0.8-1.9,0.8c-0.3,0-0.5-0.3-0.8-0.5
				c0.3,0,0.3,0,0.5,0c-0.3-0.5,0-0.8,0.3-1.3c0.3-0.5,0.8-0.8,1.3-1.3c0.5-0.5,1.3-0.8,2.1-1.1c0.5-0.3,1.3-0.3,2.1-0.3
				c0.3,0,0.5,0.5,0.5,0.8c0.3-0.3,0.5-0.8,0.3-1.3c-0.3-0.3-0.5-0.3-0.8-0.3c-0.8,0-1.6,0.3-2.4,0.5c-0.8,0.3-1.3,0.5-1.8,1.1
				c0.3-0.3,0.5-0.5,0.8-0.8c0.5-0.5,1.3-1.3,1.9-1.9c-0.3,0.3-0.3,0.5-0.3,0.8c0.5-0.3,1.1-0.3,1.6-0.3c0.3-0.5,0.3-1.1,0.5-1.6
				c0-0.3,0.3-0.3,0.3-0.5h-0.3c-0.5,0.3-1.1,0.3-1.6,0.5c0,0-0.3,0-0.3,0.3c-0.3,0.3-0.5,0.5-0.8,0.8c-0.8,0.8-1.3,1.3-2.1,2.1
				c-0.8,1.1-1.9,2.1-2.9,2.7c-0.3,0.3-0.5,0.3-0.8,0.3c0,0,0.3,0,0.3,0.3c-0.3,0-0.3,0-0.5,0s-0.3-0.3-0.3-0.3c0-0.3,0-0.5,0.3-0.8
				c0.3-0.5,0.5-1.3,0.8-1.9c0.5-0.8,1.1-1.6,1.6-2.4c0.3-0.3,0.3-0.3,0.5-0.5c-0.3,0-0.3,0-0.5,0c-0.5,0-0.8,0-1.3,0.3
				c-0.3,0-0.3,0.3-0.5,0.3c-0.5,1.1-1.3,1.9-1.9,2.9c-0.5,0.8-1.1,1.3-1.9,1.9c-0.3,0.3-0.8,0.5-1.1,0.5l0.3,0.3
				c-0.3,0-0.3,0-0.5-0.3c0-0.3,0-0.5,0-0.8c0.3-0.8,0.8-1.6,1.3-2.4c0.5-0.8,1.1-1.3,1.6-2.1c0.3-0.3,0.3-0.3,0.5-0.5
				c-0.3,0-0.5,0-0.8,0c-0.3,0-0.8,0-1.1,0.3c-0.3,0-0.5,0.3-0.5,0.3c-0.8,1.1-1.3,2.1-2.1,3.2c0,0,0,0.3-0.3,0.3
				c-0.5,0.5-1.1,1.1-1.6,1.3c-0.3,0.3-0.5,0.3-1.1,0.3c0,0,0,0.3,0.3,0.3c-0.3,0-0.5-0.3-0.5-0.5c0-0.5,0.3-0.8,0.5-1.3
				c0.5-0.8,1.3-1.6,1.9-2.4c0-0.3,0.3-0.3,0.3-0.5c0-0.3-0.3-0.3-0.5-0.3c-0.3,0-0.8,0-1.1,0.3c-0.3,0-0.5,0.3-0.5,0.3
				c-0.3,0.3-0.8,0.5-1.1,0.5c-0.3,0-0.5,0-0.8-0.3c0-0.3,0-0.5,0.3-0.8c0.3-0.5,0.5-0.8,0.8-1.1c0.3-0.5,0.5-0.8,1.1-1.3
				c0.3-0.3,0.3-0.3,0.5-0.3c0,0.3-0.3,0.5-0.3,0.8c-0.5,0.8-1.1,1.6-1.6,2.1c0,0,0,0.3-0.3,0.3c0.3,0,0.5,0,0.8-0.3
				c0.8-0.8,1.3-1.9,1.9-2.9c0.3-0.3,0.3-0.8,0.3-1.3c0-0.3-0.3-0.3-0.3-0.3C35,29.1,34.7,29.4,34.5,29.6z M31.5,34.7
				c-0.8,1.1-1.6,1.9-2.7,2.7l0.3,0.3c0.5-0.5,1.1-0.8,1.6-1.6c0.3-0.3,0.8-0.8,1.1-1.1C31.8,34.9,31.8,34.7,31.5,34.7z M40.5,40.8
				c-0.8,0.5-1.3,1.3-1.6,2.1c-0.3,0.8-0.3,1.9,0,2.7c0.3,0.8,0.8,1.9,1.6,2.4c0.8,0.5,1.9,0.8,2.9,0.8c0.8,0,1.9-0.3,2.4-0.8
				c0.8-0.5,1.3-1.6,1.3-2.7c0-0.5,0-0.8,0-1.3c-1.1,0-2.4,0-3.4,0c0,0.5,0,1.1,0,1.6c0.5,0,1.3,0,1.9,0c0,0.3,0,0.5-0.3,0.8
				c-0.3,0.3-0.5,0.5-1.1,0.5c-0.5,0.3-1.3,0-1.9-0.3c-0.8-0.3-1.3-1.1-1.3-1.9c-0.3-0.8,0-1.6,0.3-2.1c0.3-0.5,0.8-1.1,1.6-1.1
				c0.5,0,1.3,0,1.9,0.3c0.3,0.3,0.5,0.5,0.8,0.8c0.5-0.3,0.8-0.5,1.3-1.1c-0.3-0.3-0.3-0.3-0.5-0.5c0,0.5-0.3,0.8-0.8,1.1
				c-0.3,0-0.8-0.3-0.8-0.5c-0.3-0.5,0.3-0.8,0-1.3c-0.3,0-0.5,0-0.5-0.3c-0.3,0-0.5,0-0.8,0C42.4,40,41.3,40.2,40.5,40.8z M26,40
				c0,1.6,0,3.4,0,5.3c0,0.8,0.3,1.6,0.8,2.4c0.5,0.5,1.3,0.8,2.1,0.8c0.8,0,1.6,0,2.4-0.3c0.5-0.3,1.1-0.8,1.3-1.3
				c0-0.3,0-0.5,0-0.5c0-0.3,0.3-0.5,0.3-0.8c-0.5,0-1.1-0.3-1.6-0.5c0,0.5,0,1.1-0.5,1.6c-0.3,0.3-0.8,0.5-1.3,0.5
				c-0.5,0-1.1,0-1.3-0.5c-0.3-0.3-0.5-1.1-0.5-1.6c0-1.3,0-2.4,0-3.7c0-0.3,0-0.3,0-0.5c-0.3-0.3-0.3-0.5-0.5-0.8c0,0,0,0-0.3,0
				C26.8,40,26.2,40,26,40z M33.7,40c0,0.3,0,0.5,0,0.5s0,0,0.3,0.3c0.3,0.3,0.5,0.3,0.8,0.5c0.5,0,1.1,0,1.6,0
				c0.3,0,0.5-0.3,0.8-0.5c0.5-0.3,1.1,0.3,1.3,0.8c0.3,0.5,0,0.8-0.3,1.3c-0.5,0.8-1.3,1.6-2.1,2.1c-0.3,0-0.3,0.3-0.5,0.3
				c0.3,0,0.3,0.3,0.5,0.3c0.3,0,0.3,0.3,0.5,0.5c0.3,0.5,0.5,1.1,0.8,1.6c0.3,0.3,0.3,0.5,0.5,0.8c0.5,0,1.3,0,1.9,0
				c-0.3-0.5-0.5-1.1-0.8-1.3c-0.3-0.5-0.5-1.3-1.1-1.9C37.6,45,37.4,45,37.1,45c0.5,0,1.1-0.5,1.3-0.8c0.3-0.5,0.5-1.3,0.3-2.1
				c0-0.5-0.5-1.1-0.8-1.3c-0.5-0.3-1.1-0.3-1.6-0.5C35.2,40,34.5,40,33.7,40z M48,48.2c1.6,0,3.2,0,4.8,0c0-0.5,0-1.1,0-1.6
				c-1.1,0-2.1,0-3.2,0c0-0.8,0-1.3,0-2.1c1.1,0,2.1,0,3.2,0c0-0.5,0-1.1,0-1.6c-1.1,0-2.1,0-3.2,0c0-0.5,0-1.1,0-1.6
				c1.1,0,2.1,0,3.2,0c0-0.5,0-1.1,0-1.6c-1.6,0-3.2,0-4.8,0C48,42.9,48,45.5,48,48.2z M53.5,40c0,2.7,0,5.6,0,8.2
				c0.5,0,1.1,0,1.6,0c0-1.1,0-2.1,0-3.2c0.3,0,0.5,0.3,0.8,0.5c0.3,0.3,0.5,0.5,0.5,1.1c0.3,0.5,0.3,1.1,0.3,1.9c0.5,0,1.1,0,1.6,0
				c0-0.3,0-0.5,0-0.8c0-0.8-0.3-1.3-0.8-2.1c-0.3-0.3-0.5-0.8-1.1-0.8c0.5,0,1.1-0.3,1.3-0.8c0.3-0.5,0.3-0.8,0.3-1.3
				c0-0.5-0.3-1.3-0.5-1.6c-0.3-0.3-0.8-0.5-1.3-0.5C55.4,40,54.3,40,53.5,40z M22.5,40.8c-0.8,0.3-1.9,0.8-2.6,0.8
				c0,2.1,0,4.5,0,6.6c0.8,0,1.6,0,2.4,0c0.5,0,1.1,0,1.6-0.3c0.5-0.3,0.8-0.5,1.1-0.8c0.5-0.8,0.5-1.6,0.3-2.4
				c-0.3-0.5-0.5-0.8-0.8-1.1c0.8-0.5,0.8-1.3,0.5-2.1c-0.3-0.5-0.5-1.3-1.3-1.3C23.3,40.5,22.8,40.5,22.5,40.8z M34.2,45.5
				c0,0.3,0.3,0.8,0.3,1.1c0,0.5-0.3,1.1-0.8,1.1c0,0.3,0,0.5,0,0.8c0.5,0,1.1,0,1.6,0c0-1.1,0-2.1,0-3.2
				C35,45.3,34.5,45.3,34.2,45.5z"/>
		</g>
		<path style="fill:#761416;" d="M21.5,41.6c0.3,0,0.8,0,1.1,0c0.3,0,0.5,0.3,0.5,0.5c0,0.3,0,0.5,0,0.8c0,0.3-0.3,0.3-0.5,0.5
			c-0.3,0-0.8,0-1.1,0C21.5,42.6,21.5,42.1,21.5,41.6z"/>
		<path style="fill:#761416;" d="M55.1,41.6c0.3,0,0.8,0,1.1,0.3c0.3,0.3,0.3,0.5,0.3,0.8c0,0.3,0,0.5-0.3,0.5c-0.3,0-0.8,0-1.1,0
			C55.1,42.6,55.1,42.1,55.1,41.6z"/>
		<path style="fill:#761416;" d="M21.5,44.7c0.5,0,1.1,0,1.6,0.3c0.5,0.3,0.5,1.3,0,1.6c-0.5,0.3-1.1,0-1.6,0.3
			C21.5,46.1,21.5,45.3,21.5,44.7z"/>
		<path style="fill:#761416;" d="M59.9,48.7c0.3,0,0.3,0,0.5,0c0,0,0,0-0.3,0V49l0,0C60.2,49.3,60.2,49,59.9,48.7
			C59.9,49,59.9,49,59.9,48.7z"/>
		<path style="fill:#761416;" d="M60.4,49.3c0-0.3,0-0.5,0-0.5s0,0.3,0.3,0.3c0,0,0-0.3,0.3-0.3l0,0c0,0.3,0,0.3,0,0.5l0,0V49
			C60.7,49,60.7,49.3,60.4,49.3c0.3,0,0.3-0.3,0-0.3C60.4,49.3,60.4,49.3,60.4,49.3L60.4,49.3z"/>
	</g>
	<g>
		<path style="fill:#FAA220;" d="M40.3,22.5c0.3,0,0.5-0.3,0.8-0.3c0.3,0,0.3,0.3,0.3,0.5c0,0.5-0.3,1.1-0.5,1.3
			c-0.3,0.3-0.3,0.5-0.5,0.5c0.3-0.5,0.8-1.1,0.8-1.6c0,0.3-0.3,0.3-0.3,0.5c-0.3,0.3-0.5,0.8-0.8,1.1c-0.3,0.8-0.3,1.6-0.3,2.1
			c0,0.3,0,0.3-0.3,0.5h-0.3c0-0.3,0-0.3,0-0.5c0-0.3,0-0.8,0-1.1s-0.5-0.8-0.8-0.8l0,0c-0.3,0-0.8,0-1.1,0.3c0.3,0,0.5,0,0.5,0
			c-1.9,0.8-3.4,1.9-5,2.9c-2.7,1.9-5,3.7-7.4,5.8c0-0.3,0-0.3,0-0.5c-0.3,0.3-0.3,0.5,0,0.8c0,0.3,0.3,0.5,0.5,0.8
			c0.5,0.8,1.3,1.3,1.9,2.1c0.3,0.3,0.5,0.5,0.8,0.8c1.3,1.3,2.7,2.7,4,3.7c0.3,0.3,0.5,0.5,1.1,0.5c0.5,0.3,1.1,0.3,1.6,0
			c0.5,0,1.1-0.3,1.3-0.5v0.3c-0.3,0.3-0.5,0.5-0.8,0.8c-0.5,0.8-1.3,1.3-2.4,1.6V44c-0.5,0.5-0.5,1.3-0.5,1.9c0,0.3,0,0.5,0,0.8
			c0,0.3-0.5,0.3-0.5,0c-0.3-0.3,0-0.5,0-1.1c0-0.3,0-0.5-0.3-0.8c-0.3-0.3-0.5-0.3-0.5-0.3c-0.3-0.3-0.3-0.5-0.3-0.8V44
			c-0.8-0.5-1.3-1.1-1.9-1.6c-1.6-1.9-2.9-4-4.5-6.1c-0.3-0.5-0.5-1.1-1.1-1.3c-0.3-0.3-0.3-0.3-0.5-0.3c-0.3,0-0.3,0.3-0.3,0.5
			l0.3-0.3c0.3,0,0.3,0.3,0.5,0.3c-0.5,0.8-1.1,1.6-1.3,2.7c0-0.3,0-0.5,0-0.8c0,0.5-0.3,1.1,0,1.3c0,0.3,0.3,0.3,0.5,0.3
			c0,0,0,0-0.3,0.3c-0.5,0.3-1.1,0.5-1.6,0.8c-0.5,0.3-1.1,0.5-1.9,0.5c-0.3,0-0.5,0-0.8,0V40c0-0.3,0.3-0.8,0.5-1.1
			c0.5-1.1,1.1-1.9,1.9-2.7c1.1-1.3,2.1-2.7,3.2-4c1.6-1.9,2.9-3.7,4.5-5.6c0.3,0,0.5,0,0.8,0c-0.3,0-0.5-0.3-0.8-0.5
			c0-0.3,0-0.5,0.3-0.8c0.5-0.5,1.1-0.8,1.6-1.1c0.5-0.3,0.8-0.5,1.3-0.3c0.3,0,0.5,0,0.5,0.3c-0.5,0.5-1.1,1.1-1.6,1.6
			c-1.6,1.9-3.2,3.7-4.5,5.8C26,32,26,32.3,25.7,32.5c2.9-2.4,5.8-4.5,8.8-6.6c1.1-0.8,1.9-1.3,2.9-2.1C39,23.3,39.5,22.7,40.3,22.5
			z"/>
		<path style="fill:#FAA220;" d="M58.3,25.9c0.3,0,0.5,0,0.8,0c0,0,0,0,0,0.3c-1.3,1.3-2.7,2.9-3.7,4.5c-1.1,1.6-2.1,2.9-2.9,4.5
			v0.3c0.5-0.3,0.8-0.8,1.3-1.3c0.8-0.8,1.6-1.3,2.4-1.9c0.5-0.3,1.1-0.5,1.9-0.5c0.3,0,0.5,0.3,0.5,0.3c0,0.3,0,0.5-0.3,0.8
			c-0.8,1.1-1.9,2.1-2.4,3.2c-0.3,0.3-0.5,0.8-0.3,1.3c-0.3,0-0.3-0.3-0.5-0.3c0,0.3,0.3,0.5,0.5,0.5c0.5,0,0.8-0.3,1.3-0.5
			c0.5-0.5,1.3-1.1,1.9-1.6c0,0,0,0,0.3,0c0,0.3,0.3,0.5,0,0.5c-0.5,0.5-1.1,0.8-1.6,1.3c-0.5,0.5-1.3,0.8-1.9,1.1
			c-0.5,0.3-1.1,0.3-1.3,0c-0.3-0.3-0.3-0.5-0.3-0.8c0-0.8,0.5-1.3,0.8-1.9c0.5-0.8,1.1-1.6,1.6-2.4c0.3-0.3,0.5-0.3,0.5-0.3
			c-0.3-0.3-0.5,0-0.8,0c-0.5,0.3-1.1,0.8-1.6,1.3c-1.1,1.1-2.1,2.4-3.2,3.7c0,0.3-0.3,0.3-0.5,0.3c-0.3,0-0.8,0-1.1-0.3
			c0,0-0.3-0.3,0-0.3c0.3-0.8,0.8-1.6,1.1-2.4c0.5,0,0.8-0.3,0.8-0.8c0-0.3,0-0.5,0-0.8c0.3-0.5,0.8-1.1,1.1-1.6
			c1.3-2.1,2.7-4.2,4.2-6.1c0-0.3,0.3-0.3,0.5-0.3C57.5,25.9,57.8,25.9,58.3,25.9z"/>
		<path style="fill:#FAA220;" d="M34.5,29.6c0.3-0.3,0.5-0.3,0.8-0.3c0.3,0,0.3,0,0.3,0.3c0,0.5-0.3,0.8-0.3,1.3
			c-0.5,1.1-1.1,2.1-1.9,2.9c-0.3,0.3-0.5,0.3-0.8,0.3c0,0,0-0.3,0.3-0.3c0.8-0.5,1.1-1.3,1.6-2.1c0.3-0.3,0.3-0.5,0.3-0.8
			c-0.3,0-0.5,0.3-0.5,0.3c-0.3,0.5-0.8,0.8-1.1,1.3c-0.3,0.3-0.5,0.8-0.8,1.1c0,0.3-0.3,0.5-0.3,0.8c0,0.3,0.5,0.3,0.8,0.3
			c0.5,0,0.8-0.3,1.1-0.5c0.3,0,0.5-0.3,0.5-0.3c0.3-0.3,0.8-0.3,1.1-0.3c0.3,0,0.3,0,0.5,0.3c0,0.3,0,0.5-0.3,0.5
			c-0.5,0.8-1.3,1.6-1.9,2.4c-0.3,0.3-0.5,0.8-0.5,1.3c0,0.3,0.3,0.5,0.5,0.5c0,0,0-0.3-0.3-0.3c0.3,0,0.8,0,1.1-0.3
			c0.5-0.5,1.1-1.1,1.6-1.3l0.3-0.3c0.5-1.1,1.3-2.1,2.1-3.2c0-0.3,0.3-0.3,0.5-0.3s0.8-0.3,1.1-0.3c0.3,0,0.5,0,0.8,0
			c0,0.3-0.3,0.3-0.5,0.5c-0.5,0.5-1.1,1.3-1.6,2.1c-0.5,0.8-1.1,1.6-1.3,2.4c0,0.3-0.3,0.5,0,0.8c0,0.3,0.3,0.3,0.5,0.3l-0.3-0.3
			c0.5,0,0.8-0.3,1.1-0.5c0.5-0.5,1.3-1.1,1.9-1.9c0.8-1.1,1.3-1.9,1.9-2.9c0-0.3,0.3-0.3,0.5-0.3c0.5-0.3,0.8-0.3,1.3-0.3
			c0.3,0,0.3,0,0.5,0c-0.3,0.3-0.3,0.5-0.5,0.5c-0.5,0.8-1.1,1.6-1.6,2.4c-0.3,0.5-0.8,1.3-0.8,1.9c0,0.3-0.3,0.5-0.3,0.8
			c0,0.3,0,0.3,0.3,0.3s0.3,0,0.5,0c0,0-0.3,0-0.3-0.3c0.3,0,0.5-0.3,0.8-0.3c1.1-0.8,1.9-1.9,2.9-2.7c0.8-0.8,1.3-1.3,2.1-2.1
			c0.3-0.3,0.5-0.5,0.8-0.8l0.3-0.3c0.5-0.3,1.1-0.3,1.6-0.5h0.3c0,0.3-0.3,0.3-0.3,0.5c-0.3,0.5-0.5,1.1-0.5,1.6
			c-0.5,0-1.1,0.3-1.6,0.3c0-0.3,0.3-0.5,0.3-0.8c-0.8,0.5-1.3,1.1-1.9,1.9c-0.3,0.3-0.5,0.5-0.8,0.8c0.5-0.3,1.1-0.8,1.8-1.1
			c0.8-0.3,1.6-0.5,2.4-0.5c0.3,0,0.5,0,0.8,0.3c0.3,0.5,0.3,1.1-0.3,1.3c0-0.3,0-0.5-0.5-0.8c-0.8-0.3-1.3,0-2.1,0.3
			c-0.8,0.3-1.3,0.5-2.1,1.1c-0.5,0.3-1.1,0.8-1.3,1.3c-0.3,0.3-0.5,0.8-0.3,1.3c-0.3,0-0.3,0-0.5,0c0.3,0.3,0.5,0.5,0.8,0.5
			c0.8,0,1.3-0.3,1.9-0.8c0.8-0.8,1.1-1.6,1.1-2.7C48.5,36,49,36,49.6,36c-0.3,0.8-0.3,1.6-0.8,2.4c-0.3,0.5-0.8,0.8-1.3,1.1
			c0.3-0.3,0.3-0.3,0.5-0.5c-0.3,0.3-0.8,0.5-1.1,0.8c-0.3,0.3-0.3,0.3-0.5,0.5c0,0,0,0.3-0.3,0c-0.3,0-0.3-0.3-0.5-0.3
			c0,0-0.3,0-0.3,0.3c0,0.3,0,0.5-0.3,0.8c0,0.3,0.3,0.8,0,1.1c0,0.3-0.3,0.3-0.5,0c0-0.3,0-0.5,0-0.5c0-0.3,0.3-0.8,0-1.1
			c0-0.3-0.3-0.5-0.5-0.8c0,0,0,0.3,0.3,0.3c-0.3,0-0.8-0.3-0.8-0.5c-0.3-0.3-0.3-0.8,0-1.1c-0.8,0.5-1.3,1.1-2.1,1.3
			C40.8,40,40.5,40,40,40c-0.3,0-0.5,0-0.5-0.3c-0.3-0.3-0.3-0.5,0-0.8c0-0.3,0.3-0.5,0.3-0.5c-0.5,0.5-1.3,1.1-1.9,1.3
			C37.4,40,37.1,40,36.6,40c-0.3,0-0.5,0-0.8-0.3c-0.3,0-0.3-0.5-0.3-0.5c0-0.5,0.3-1.1,0.8-1.6c-0.3,0.3-0.5,0.5-0.8,0.8
			c0,0,0,0.3-0.3,0.3c-0.5,0.5-1.3,1.1-2.1,1.3c-0.5,0.3-1.1,0.3-1.3,0.3c-0.3,0-0.5-0.5-0.5-0.8c0-0.5,0.3-1.1,0.5-1.3
			c0.5-0.5,0.8-1.1,1.3-1.6c0.3-0.3,0.5-0.5,0.5-0.8h0.3c0-0.3-0.3-0.3-0.3-0.3c-0.3,0-0.5,0.3-1.1,0.3c-0.3,0-0.5,0-0.8-0.3
			c-0.3-0.3-0.3-0.5-0.3-0.8c0-0.8,0.5-1.6,1.1-2.1C33.1,30.7,33.9,30.2,34.5,29.6z"/>
		<path style="fill:#FAA220;" d="M31.5,34.7l0.3,0.3c-0.3,0.5-0.8,0.8-1.1,1.1c-0.5,0.5-1.1,1.1-1.6,1.6l-0.3-0.3
			C29.9,36.5,30.7,35.5,31.5,34.7z"/>
	</g>
	<g>
		<path style="fill:#FFFFFF;" d="M40.5,40.8c0.8-0.5,1.6-0.8,2.7-0.8c0.3,0,0.5,0,0.8,0c0.3,0,0.5,0.3,0.5,0.3c0,0.5-0.3,0.8,0,1.3
			c0,0.3,0.5,0.5,0.8,0.5c0.5,0,0.8-0.5,0.8-1.1c0.3,0.3,0.3,0.3,0.5,0.5c-0.5,0.3-0.8,0.5-1.3,1.1c-0.3-0.3-0.5-0.5-0.8-0.8
			c-0.5-0.3-1.3-0.3-1.9-0.3c-0.5,0.3-1.3,0.5-1.6,1.1c-0.3,0.5-0.5,1.3-0.3,2.1c0.3,0.8,0.8,1.6,1.3,1.9c0.5,0.3,1.3,0.3,1.9,0.3
			c0.3,0,0.8-0.3,1.1-0.5c0.3-0.3,0.3-0.5,0.3-0.8c-0.5,0-1.3,0-1.9,0c0-0.5,0-1.1,0-1.6c1.1,0,2.4,0,3.4,0c0,0.5,0,0.8,0,1.3
			c0,1.1-0.5,2.1-1.3,2.7c-0.8,0.5-1.6,0.8-2.4,0.8c-1.1,0-2.1-0.3-2.9-0.8c-0.8-0.5-1.3-1.3-1.6-2.4c-0.3-0.8-0.3-1.9,0-2.7
			C39.5,41.8,40,41.3,40.5,40.8z"/>
		<path style="fill:#FFFFFF;" d="M26,40c0.3,0,0.5,0,1.1,0c0,0,0,0,0.3,0c0.3,0.3,0.3,0.5,0.5,0.8c0,0,0,0.3,0,0.5
			c0,1.3,0,2.4,0,3.7c0,0.5,0,1.1,0.5,1.6c0.3,0.3,0.8,0.5,1.3,0.5s1.1,0,1.3-0.5c0.3-0.5,0.5-1.1,0.5-1.6c0.5,0.3,1.1,0.5,1.6,0.5
			c0,0.3,0,0.5-0.3,0.8c0,0.3,0,0.5,0,0.5c-0.3,0.5-0.8,1.1-1.3,1.3c-0.8,0.3-1.6,0.3-2.4,0.3c-0.8,0-1.6-0.3-2.1-0.8
			c-0.5-0.5-0.8-1.6-0.8-2.4C26,43.4,26,41.8,26,40z"/>
		<path style="fill:#FFFFFF;" d="M33.7,40c0.8,0,1.6,0,2.4,0c0.5,0,1.1,0,1.6,0.5c0.5,0.3,0.8,0.8,0.8,1.3c0.3,0.8,0,1.3-0.3,2.1
			c-0.3,0.5-0.8,0.8-1.3,0.8c0.3,0,0.5,0.3,0.8,0.3c0.5,0.5,0.8,1.1,1.1,1.9c0.3,0.5,0.5,1.1,0.8,1.3c-0.5,0-1.3,0-1.9,0
			c-0.3-0.3-0.5-0.5-0.5-0.8c-0.3-0.5-0.5-1.1-0.8-1.6c-0.3-0.3-0.3-0.3-0.5-0.5c-0.3,0-0.3-0.3-0.5-0.3c0.3,0,0.3-0.3,0.5-0.3
			c0.8-0.5,1.6-1.3,2.1-2.1c0.3-0.3,0.3-0.8,0.3-1.3c-0.3-0.5-0.8-0.8-1.3-0.8c-0.3,0-0.5,0.3-0.8,0.5c-0.5,0.3-1.1,0.3-1.6,0
			c-0.3,0-0.5-0.3-0.8-0.5c0,0-0.3,0-0.3-0.3C33.7,40.5,33.7,40.2,33.7,40z"/>
		<path style="fill:#FFFFFF;" d="M48,48.2c0-2.7,0-5.6,0-8.2c1.6,0,3.2,0,4.8,0c0,0.5,0,1.1,0,1.6c-1.1,0-2.1,0-3.2,0
			c0,0.5,0,1.1,0,1.6c1.1,0,2.1,0,3.2,0c0,0.5,0,1.1,0,1.6c-1.1,0-2.1,0-3.2,0c0,0.8,0,1.3,0,2.1c1.1,0,2.1,0,3.2,0
			c0,0.5,0,1.1,0,1.6C51.1,48.2,49.6,48.2,48,48.2z"/>
		<g>
			<path style="fill:#FFFFFF;" d="M53.5,40c1.1,0,1.9,0,2.9,0c0.5,0,1.1,0.3,1.3,0.5c0.5,0.5,0.5,1.1,0.5,1.6c0,0.5,0,1.1-0.3,1.3
				c-0.3,0.5-0.8,0.8-1.3,0.8c0.5,0,0.8,0.5,1.1,0.8c0.5,0.5,0.5,1.3,0.8,2.1c0,0.3,0,0.5,0,0.8c-0.5,0-1.1,0-1.6,0
				c0-0.5-0.3-1.3-0.3-1.9c0-0.3-0.3-0.8-0.5-1.1c-0.3-0.3-0.5-0.3-0.8-0.5c0,1.1,0,2.1,0,3.2c-0.5,0-1.1,0-1.6,0
				C53.5,45.5,53.5,42.9,53.5,40z M55.1,41.6c0,0.5,0,1.1,0,1.9c0.3,0,0.8,0,1.1,0c0.3,0,0.3-0.3,0.3-0.5c0-0.3,0-0.5-0.3-0.8
				C55.9,41.6,55.7,41.6,55.1,41.6z"/>
		</g>
		<g>
			<path style="fill:#FFFFFF;" d="M22.5,40.8c0.3-0.3,0.8-0.3,1.1-0.5c0.5,0.3,1.1,0.8,1.3,1.3c0.3,0.8,0,1.6-0.5,2.1
				c0.5,0.3,0.8,0.5,0.8,1.1c0.3,0.8,0.3,1.6-0.3,2.4c-0.3,0.3-0.5,0.8-1.1,0.8c-0.5,0.3-1.1,0.3-1.6,0.3c-0.8,0-1.6,0-2.4,0
				c0-2.1,0-4.5,0-6.6C20.7,41.6,21.7,41,22.5,40.8z M21.5,41.6c0,0.5,0,1.1,0,1.9c0.5,0,0.8,0,1.1,0c0.3,0,0.5-0.3,0.5-0.5
				c0-0.3,0-0.5,0-0.8c0-0.3-0.3-0.3-0.5-0.5C22.3,41.6,22,41.6,21.5,41.6z M21.5,44.7c0,0.8,0,1.3,0,2.1c0.5,0,1.1,0,1.6-0.3
				c0.5-0.3,0.5-1.3,0-1.6C22.5,44.7,22,44.7,21.5,44.7z"/>
		</g>
		<path style="fill:#FFFFFF;" d="M34.2,45.5c0.3,0,0.8-0.3,1.1-0.5c0,1.1,0,2.1,0,3.2c-0.5,0-1.1,0-1.6,0c0-0.3,0-0.5,0-0.8
			c0.5,0,0.8-0.5,0.8-1.1C34.5,46.1,34.2,45.8,34.2,45.5z"/>
	</g>
</g>
</svg>
