<?xml version="1.0" encoding="utf-8"?>
<!-- Generator: Adobe Illustrator 16.0.0, SVG Export Plug-In . SVG Version: 6.00 Build 0)  -->
<!DOCTYPE svg PUBLIC "-//W3C//DTD SVG 1.1//EN" "http://www.w3.org/Graphics/SVG/1.1/DTD/svg11.dtd">
<svg version="1.1" id="Layer_1" xmlns="http://www.w3.org/2000/svg" xmlns:xlink="http://www.w3.org/1999/xlink" x="0px" y="0px"
	 width="80px" height="100px" viewBox="0 0 80 100" style="enable-background:new 0 0 80 100;" xml:space="preserve">
<path style="fill:#2B4735;" d="M39.8,2.1C19.9,2.1,3.9,18.2,3.9,38c0,8,2.8,15.5,7.3,21.6L40,97.9l28.8-38.4
	c4.5-6,7.3-13.5,7.3-21.6C75.6,18.2,59.6,2.1,39.8,2.1z M39.8,61.8C26.5,61.8,15.9,51,15.9,38c0-13.3,10.8-23.8,23.8-23.8
	C53,14.1,63.6,24.9,63.6,38C63.8,51.3,53,61.8,39.8,61.8z"/>
<path style="fill:#2B4735;" d="M65.7,37.3C65.7,51.5,54.2,63,40,63c-14.2,0-25.7-11.5-25.7-25.7c0-14.2,11.5-25.7,25.7-25.7
	C54.2,11.6,65.7,23.1,65.7,37.3z"/>
<g>
	<g>
		<path style="fill:#FCCE0D;" d="M37.7,13.5c4.3,3,8.5,5.9,12.8,8.9c0,3.9,0,7.9,0,11.8c2.5-1.4,4.9-3,7.4-4.4
			c-0.2,1.8-0.6,3.6-0.9,5.5c-0.5,2.7-0.9,5.5-1.4,8.2c-0.1,0.3-0.1,0.7-0.1,1c0.1,2.3,0,4.7,0,7c0,0.9,0,1.8-0.4,2.6
			c-0.6,1.4-1.8,2.5-3.1,3.4c-1.4,0.9-3.1,1.5-4.7,2c-2.1,0.6-4.3,0.9-6.5,0.9c-3.7,0.1-7.5-0.5-11-2c-1.5-0.7-3-1.7-4-3.1
			c-0.4-0.6-0.7-1.2-0.9-1.9c-0.2-0.7-0.1-1.4-0.1-2.2c0-1.8,0-3.6,0-5.4c0-0.3,0.1-0.6,0-0.8C23.9,40,22.9,34.9,22,29.8
			c1.4,0.8,2.8,1.7,4.1,2.5c0.7,0.4,1.4,0.9,2.2,1.3c0-1.9,0-3.9,0-5.8c0.9-0.5,1.7-1.1,2.5-1.7c2.3-1.6,4.5-3.2,6.8-4.7
			C37.7,18.7,37.7,16.1,37.7,13.5z M39.4,16.8c0,1.1,0,2.2,0,3.3c0.6-0.3,1.1-0.8,1.7-1.1c0,0.4,0,0.7,0,1.1c0,5.5,0,11.1,0,16.6
			c0,4.7,0,9.4,0,14c0.9,0,1.9-0.1,2.8-0.3c0.8-4.6,1.6-9.1,2.4-13.7c0.8-0.5,1.6-0.9,2.3-1.4c0.1-0.1,0.2-0.2,0.2-0.3
			c0-3.8,0-7.6,0-11.4c0.1-0.4-0.3-0.6-0.6-0.8C45.3,20.8,42.4,18.8,39.4,16.8z M35.9,24.7c-1.9,1.3-3.9,2.7-5.8,4c0,2,0,3.9,0,5.9
			c1.1,0.7,2.3,1.4,3.4,2.1c0.1,0.1,0.2,0.1,0.2,0.2c0.5,2.9,1,5.9,1.5,8.8c0.3,1.6,0.5,3.1,0.8,4.7c1.2,0.1,2.3,0.3,3.5,0.3
			c0.1-1.4,0-2.9,0-4.3c0-8.1,0-16.1,0-24.2C38.3,23,37.1,23.9,35.9,24.7z M55.7,33.2c-1.4,0.8-2.8,1.7-4.3,2.6
			c-1.2,0.7-2.3,1.4-3.5,2.1c-0.1,0.4-0.2,0.9-0.3,1.3c-0.6,3.7-1.3,7.3-1.9,11c0.4,0,0.8-0.1,1.2-0.2c1.2-0.3,2.4-0.8,3.4-1.3
			c1.2-0.6,2.4-1.5,3-2.7c0.2-0.3,0.2-0.7,0.3-1.1C54.4,40.9,55.1,37.1,55.7,33.2z M24.4,33.2c0.7,3.6,1.3,7.1,2,10.7
			c0.1,0.8,0.3,1.6,0.8,2.3c0.9,1.2,2.2,2,3.5,2.6c1.1,0.5,2.3,0.9,3.5,1.2c-0.4-2.8-0.9-5.6-1.4-8.4c-0.2-1.3-0.4-2.5-0.6-3.8
			c-0.4-0.2-0.8-0.4-1.2-0.7c-2.1-1.3-4.3-2.6-6.4-3.9C24.5,33.3,24.4,33.3,24.4,33.2z M26.5,48.2c0,1.2,0,2.5,0,3.7
			c0,0.5,0,0.9,0.1,1.4c0.2,0.6,0.5,1.2,1,1.6c1,1,2.2,1.7,3.5,2.3c3.8,1.5,8,1.9,12.1,1.5c1.6-0.2,3.1-0.5,4.6-1
			c1.6-0.5,3.2-1.2,4.5-2.3c0.8-0.7,1.6-1.7,1.6-2.9c0-1.4,0-2.9,0-4.3c-1.4,1.4-3.3,2.3-5.1,3c-2.2,0.8-4.5,1.1-6.8,1.3
			c-3.8,0.2-7.8-0.2-11.3-1.7C29.1,50.1,27.7,49.3,26.5,48.2z"/>
	</g>
	<path style="fill:#FCCE0D;" d="M27.3,52.2c0.1-0.4,0.5-0.5,0.8-0.6c0.3,0.1,0.6,0.2,0.7,0.4c0.2,0.3,0.2,0.6,0.1,0.9
		c-0.2,0.2-0.3,0.4-0.6,0.4C27.7,53.5,27.1,52.8,27.3,52.2z"/>
	<path style="fill:#FCCE0D;" d="M51.9,51.7c0.5-0.1,1.1,0.4,1,0.9c0,0.7-1,1.1-1.5,0.6c-0.3-0.2-0.3-0.7-0.2-1
		C51.4,52,51.6,51.8,51.9,51.7z"/>
	<path style="fill:#FCCE0D;" d="M30.8,53.3c0.5-0.3,1.3,0.1,1.4,0.7c0,0.3-0.1,0.7-0.4,0.8c-0.6,0.3-1.4-0.1-1.4-0.7
		C30.3,53.8,30.5,53.5,30.8,53.3z"/>
	<path style="fill:#FCCE0D;" d="M48.8,53.3c0.5-0.2,1.1,0.3,1,0.9c0,0.9-1.5,1.1-1.8,0.3C47.8,54,48.2,53.4,48.8,53.3z"/>
	<path style="fill:#FCCE0D;" d="M34.4,54.3c0.5-0.1,1.1,0,1.2,0.5c0.2,0.6-0.3,1.2-0.9,1.1c-0.5,0-0.9-0.4-0.9-0.9
		C33.8,54.7,34,54.4,34.4,54.3z"/>
	<path style="fill:#FCCE0D;" d="M45,54.4c0.3-0.1,0.7-0.2,1,0.1c0.3,0.2,0.4,0.6,0.3,0.9c-0.2,0.7-1.4,0.8-1.7,0.1
		C44.4,55.1,44.6,54.5,45,54.4z"/>
	<path style="fill:#FCCE0D;" d="M37.9,54.8c0.3-0.1,0.7-0.1,1,0.1c0.4,0.3,0.4,0.9,0.1,1.2c-0.4,0.5-1.3,0.4-1.6-0.2
		C37.2,55.5,37.5,54.9,37.9,54.8z"/>
	<path style="fill:#FCCE0D;" d="M41,55.2c0.4-0.5,1.2-0.6,1.6-0.1c0.2,0.2,0.2,0.5,0.1,0.8c-0.2,0.6-1.2,0.8-1.6,0.3
		C40.9,55.9,40.9,55.5,41,55.2z"/>
</g>
</svg>
